<svg xmlns="http://www.w3.org/2000/svg" xmlns:xlink="http://www.w3.org/1999/xlink" width="69.194" height="91.641" viewBox="0 0 69.194 91.641"><defs><style>.a{fill:#d92323;}.b{filter:url(#a);}</style><filter id="a" x="0" y="0" width="69.194" height="91.641" filterUnits="userSpaceOnUse"><feOffset dy="3" input="SourceAlpha"/><feGaussianBlur stdDeviation="3" result="b"/><feFlood flood-opacity="0.161"/><feComposite operator="in" in2="b"/><feComposite in="SourceGraphic"/></filter></defs><g transform="translate(9 6)"><g class="b" transform="matrix(1, 0, 0, 1, -9, -6)"><path class="a" d="M19.347,0A25.626,25.626,0,0,0-6.25,25.6c0,17.74,25.622,48.044,25.622,48.044S44.944,42.465,44.944,25.6A25.626,25.626,0,0,0,19.347,0ZM27.07,33.092a10.922,10.922,0,1,1,0-15.446A10.889,10.889,0,0,1,27.07,33.092Zm0,0" transform="translate(15.25 6)"/></g></g></svg>